<?xml version="1.0" encoding="utf-8"?>
<!-- Generator: Adobe Illustrator 23.0.2, SVG Export Plug-In . SVG Version: 6.00 Build 0)  -->
<svg version="1.1" id="Layer_1" xmlns="http://www.w3.org/2000/svg" xmlns:xlink="http://www.w3.org/1999/xlink" x="0px" y="0px"
	 viewBox="0 0 532.35 185.53" style="enable-background:new 0 0 532.35 185.53;" xml:space="preserve">
<style type="text/css">
	.st0{fill:#FFFFFF;}
	.st1{fill:url(#SVGID_1_);}
	.st2{fill:none;stroke:url(#SVGID_2_);stroke-miterlimit:10;}
	.st3{fill:url(#SVGID_3_);}
	.st4{fill:none;stroke:url(#SVGID_4_);stroke-miterlimit:10;}
	.st5{fill:url(#SVGID_5_);}
	.st6{fill:url(#SVGID_6_);}
	.st7{fill:url(#SVGID_7_);}
	.st8{fill:url(#SVGID_8_);}
	.st9{fill:url(#SVGID_9_);}
	.st10{fill:url(#SVGID_10_);}
	.st11{fill:url(#SVGID_11_);}
	.st12{fill:url(#SVGID_12_);}
	.st13{fill:url(#SVGID_13_);}
	.st14{fill:url(#SVGID_14_);}
	.st15{fill:url(#SVGID_15_);}
	.st16{fill:url(#SVGID_16_);}
	.st17{fill:url(#SVGID_17_);}
	.st18{fill:url(#SVGID_18_);}
	.st19{fill:url(#SVGID_19_);}
	.st20{fill:url(#SVGID_20_);}
	.st21{fill:url(#SVGID_21_);}
	.st22{fill:url(#SVGID_22_);}
	.st23{fill:url(#SVGID_23_);}
	.st24{fill:url(#SVGID_24_);}
	.st25{fill:url(#SVGID_25_);}
	.st26{fill:url(#SVGID_26_);}
	.st27{fill:url(#SVGID_27_);}
	.st28{fill:url(#SVGID_28_);}
	.st29{fill:url(#SVGID_29_);}
	.st30{fill:url(#SVGID_30_);}
	.st31{fill:url(#SVGID_31_);}
	.st32{fill:url(#SVGID_32_);}
	.st33{fill:url(#SVGID_33_);}
	.st34{fill:url(#SVGID_34_);}
	.st35{fill:url(#SVGID_35_);}
	.st36{fill:url(#SVGID_36_);}
	.st37{fill:url(#SVGID_37_);}
	.st38{fill:url(#SVGID_38_);}
	.st39{fill:url(#SVGID_39_);}
	.st40{fill:url(#SVGID_40_);}
	.st41{fill:url(#SVGID_41_);}
	.st42{fill:url(#SVGID_42_);}
	.st43{fill:url(#SVGID_43_);}
	.st44{fill:url(#SVGID_44_);}
	.st45{fill:url(#SVGID_45_);}
	.st46{fill:url(#SVGID_46_);}
	.st47{fill:url(#SVGID_47_);}
	.st48{fill:url(#SVGID_48_);}
	.st49{fill:url(#SVGID_49_);}
	.st50{fill:none;stroke:#000000;stroke-width:1.0547;stroke-miterlimit:10;}
	.st51{fill:url(#SVGID_50_);}
	.st52{fill:url(#SVGID_51_);}
	.st53{fill:url(#SVGID_52_);}
	.st54{fill:url(#SVGID_53_);}
	.st55{fill:url(#SVGID_54_);}
	.st56{fill:url(#SVGID_55_);}
	.st57{fill:url(#SVGID_56_);}
	.st58{fill:url(#SVGID_57_);}
	.st59{fill:url(#SVGID_58_);}
	.st60{fill:url(#SVGID_59_);}
	.st61{fill:url(#SVGID_60_);}
	.st62{fill:url(#SVGID_61_);}
	.st63{fill:url(#SVGID_62_);}
	.st64{fill:url(#SVGID_63_);}
	.st65{fill:url(#SVGID_64_);}
	.st66{fill:#666766;}
	.st67{fill:#AD2576;}
	.st68{fill:#DF4C9B;}
	.st69{fill:#F081B4;}
	.st70{fill:#D03E96;}
</style>
<g>
	<g>
		<linearGradient id="SVGID_1_" gradientUnits="userSpaceOnUse" x1="58.2399" y1="2.3012" x2="170.9755" y2="243.4696">
			<stop  offset="0" style="stop-color:#AF7C6B"/>
			<stop  offset="0.0343" style="stop-color:#C28E82"/>
			<stop  offset="0.0698" style="stop-color:#D4A09A"/>
			<stop  offset="0.0905" style="stop-color:#DCA8A4"/>
			<stop  offset="0.1163" style="stop-color:#C8928B"/>
			<stop  offset="0.1497" style="stop-color:#B88076"/>
			<stop  offset="0.1851" style="stop-color:#AD7469"/>
			<stop  offset="0.2234" style="stop-color:#A76E62"/>
			<stop  offset="0.27" style="stop-color:#A56B60"/>
			<stop  offset="0.3069" style="stop-color:#AA7266"/>
			<stop  offset="0.3642" style="stop-color:#B78478"/>
			<stop  offset="0.4344" style="stop-color:#D2A79C"/>
			<stop  offset="0.4399" style="stop-color:#D5ABA0"/>
			<stop  offset="0.4474" style="stop-color:#D7AFA3"/>
			<stop  offset="0.5047" style="stop-color:#EAC6BD"/>
			<stop  offset="0.5553" style="stop-color:#F6D5CD"/>
			<stop  offset="0.5938" style="stop-color:#FDDBD4"/>
			<stop  offset="0.6143" style="stop-color:#EBC7BF"/>
			<stop  offset="0.6781" style="stop-color:#C99A90"/>
			<stop  offset="0.7351" style="stop-color:#B57F74"/>
			<stop  offset="0.7827" style="stop-color:#A97165"/>
			<stop  offset="0.8149" style="stop-color:#A56B60"/>
			<stop  offset="0.884" style="stop-color:#AE6D60"/>
			<stop  offset="0.9935" style="stop-color:#C77062"/>
			<stop  offset="1" style="stop-color:#C97062"/>
		</linearGradient>
		<path class="st1" d="M138.56,157.87h-1.24l-6.36,16.23h3.35l0.81-2.15h5.63l0.81,2.15h3.35L138.56,157.87z M136.05,169.35
			l1.88-5.5l1.86,5.5H136.05z"/>
		<linearGradient id="SVGID_2_" gradientUnits="userSpaceOnUse" x1="97.1087" y1="-15.902" x2="209.8606" y2="225.3016">
			<stop  offset="0" style="stop-color:#AF7C6B"/>
			<stop  offset="0.0343" style="stop-color:#C28E82"/>
			<stop  offset="0.0698" style="stop-color:#D4A09A"/>
			<stop  offset="0.0905" style="stop-color:#DCA8A4"/>
			<stop  offset="0.1163" style="stop-color:#C8928B"/>
			<stop  offset="0.1497" style="stop-color:#B88076"/>
			<stop  offset="0.1851" style="stop-color:#AD7469"/>
			<stop  offset="0.2234" style="stop-color:#A76E62"/>
			<stop  offset="0.27" style="stop-color:#A56B60"/>
			<stop  offset="0.3069" style="stop-color:#AA7266"/>
			<stop  offset="0.3642" style="stop-color:#B78478"/>
			<stop  offset="0.4344" style="stop-color:#D2A79C"/>
			<stop  offset="0.4399" style="stop-color:#D5ABA0"/>
			<stop  offset="0.4474" style="stop-color:#D7AFA3"/>
			<stop  offset="0.5047" style="stop-color:#EAC6BD"/>
			<stop  offset="0.5553" style="stop-color:#F6D5CD"/>
			<stop  offset="0.5938" style="stop-color:#FDDBD4"/>
			<stop  offset="0.6143" style="stop-color:#EBC7BF"/>
			<stop  offset="0.6781" style="stop-color:#C99A90"/>
			<stop  offset="0.7351" style="stop-color:#B57F74"/>
			<stop  offset="0.7827" style="stop-color:#A97165"/>
			<stop  offset="0.8149" style="stop-color:#A56B60"/>
			<stop  offset="0.884" style="stop-color:#AE6D60"/>
			<stop  offset="0.9935" style="stop-color:#C77062"/>
			<stop  offset="1" style="stop-color:#C97062"/>
		</linearGradient>
		<path style="fill:url(#SVGID_2_);" d="M180.48,171.21v-4.2h4.88v-2.73h-4.88v-3.37h6.57v-2.86h-9.75v16.04h10.03v-2.88H180.48z"/>
		<linearGradient id="SVGID_3_" gradientUnits="userSpaceOnUse" x1="132.1655" y1="-32.334" x2="244.9295" y2="208.8952">
			<stop  offset="0" style="stop-color:#AF7C6B"/>
			<stop  offset="0.0343" style="stop-color:#C28E82"/>
			<stop  offset="0.0698" style="stop-color:#D4A09A"/>
			<stop  offset="0.0905" style="stop-color:#DCA8A4"/>
			<stop  offset="0.1163" style="stop-color:#C8928B"/>
			<stop  offset="0.1497" style="stop-color:#B88076"/>
			<stop  offset="0.1851" style="stop-color:#AD7469"/>
			<stop  offset="0.2234" style="stop-color:#A76E62"/>
			<stop  offset="0.27" style="stop-color:#A56B60"/>
			<stop  offset="0.3069" style="stop-color:#AA7266"/>
			<stop  offset="0.3642" style="stop-color:#B78478"/>
			<stop  offset="0.4344" style="stop-color:#D2A79C"/>
			<stop  offset="0.4399" style="stop-color:#D5ABA0"/>
			<stop  offset="0.4474" style="stop-color:#D7AFA3"/>
			<stop  offset="0.5047" style="stop-color:#EAC6BD"/>
			<stop  offset="0.5553" style="stop-color:#F6D5CD"/>
			<stop  offset="0.5938" style="stop-color:#FDDBD4"/>
			<stop  offset="0.6143" style="stop-color:#EBC7BF"/>
			<stop  offset="0.6781" style="stop-color:#C99A90"/>
			<stop  offset="0.7351" style="stop-color:#B57F74"/>
			<stop  offset="0.7827" style="stop-color:#A97165"/>
			<stop  offset="0.8149" style="stop-color:#A56B60"/>
			<stop  offset="0.884" style="stop-color:#AE6D60"/>
			<stop  offset="0.9935" style="stop-color:#C77062"/>
			<stop  offset="1" style="stop-color:#C97062"/>
		</linearGradient>
		<path class="st3" d="M226.77,164.98l-1.62-0.9c-1.28-0.77-1.75-1.22-1.75-2c0-0.94,0.75-1.45,1.83-1.45
			c1.17,0,1.98,0.58,2.65,1.86l2.33-1.43c-0.9-2.11-2.6-3.31-5.03-3.31c-2.88,0-4.99,1.75-4.99,4.39c0,1.96,1.15,3.26,3.56,4.69
			l1.52,0.87c1.45,0.88,1.88,1.26,1.88,2.15c0,1.05-0.77,1.68-2.05,1.68c-1.52,0-2.58-0.85-3.35-2.32l-2.35,1.47
			c1.04,2.35,3.05,3.71,5.74,3.71c3.07,0,5.25-1.79,5.25-4.61C230.41,167.75,229.31,166.45,226.77,164.98z"/>
		<linearGradient id="SVGID_4_" gradientUnits="userSpaceOnUse" x1="169.6392" y1="-49.8424" x2="282.401" y2="191.382">
			<stop  offset="0" style="stop-color:#AF7C6B"/>
			<stop  offset="0.0343" style="stop-color:#C28E82"/>
			<stop  offset="0.0698" style="stop-color:#D4A09A"/>
			<stop  offset="0.0905" style="stop-color:#DCA8A4"/>
			<stop  offset="0.1163" style="stop-color:#C8928B"/>
			<stop  offset="0.1497" style="stop-color:#B88076"/>
			<stop  offset="0.1851" style="stop-color:#AD7469"/>
			<stop  offset="0.2234" style="stop-color:#A76E62"/>
			<stop  offset="0.27" style="stop-color:#A56B60"/>
			<stop  offset="0.3069" style="stop-color:#AA7266"/>
			<stop  offset="0.3642" style="stop-color:#B78478"/>
			<stop  offset="0.4344" style="stop-color:#D2A79C"/>
			<stop  offset="0.4399" style="stop-color:#D5ABA0"/>
			<stop  offset="0.4474" style="stop-color:#D7AFA3"/>
			<stop  offset="0.5047" style="stop-color:#EAC6BD"/>
			<stop  offset="0.5553" style="stop-color:#F6D5CD"/>
			<stop  offset="0.5938" style="stop-color:#FDDBD4"/>
			<stop  offset="0.6143" style="stop-color:#EBC7BF"/>
			<stop  offset="0.6781" style="stop-color:#C99A90"/>
			<stop  offset="0.7351" style="stop-color:#B57F74"/>
			<stop  offset="0.7827" style="stop-color:#A97165"/>
			<stop  offset="0.8149" style="stop-color:#A56B60"/>
			<stop  offset="0.884" style="stop-color:#AE6D60"/>
			<stop  offset="0.9935" style="stop-color:#C77062"/>
			<stop  offset="1" style="stop-color:#C97062"/>
		</linearGradient>
		<path style="fill:url(#SVGID_4_);" d="M262.22,158.05v2.86h4.5v13.18h3.18v-13.18h4.52v-2.86H262.22z"/>
		<linearGradient id="SVGID_5_" gradientUnits="userSpaceOnUse" x1="204.5123" y1="-66.2166" x2="317.2982" y2="175.0596">
			<stop  offset="0" style="stop-color:#AF7C6B"/>
			<stop  offset="0.0343" style="stop-color:#C28E82"/>
			<stop  offset="0.0698" style="stop-color:#D4A09A"/>
			<stop  offset="0.0905" style="stop-color:#DCA8A4"/>
			<stop  offset="0.1163" style="stop-color:#C8928B"/>
			<stop  offset="0.1497" style="stop-color:#B88076"/>
			<stop  offset="0.1851" style="stop-color:#AD7469"/>
			<stop  offset="0.2234" style="stop-color:#A76E62"/>
			<stop  offset="0.27" style="stop-color:#A56B60"/>
			<stop  offset="0.3069" style="stop-color:#AA7266"/>
			<stop  offset="0.3642" style="stop-color:#B78478"/>
			<stop  offset="0.4344" style="stop-color:#D2A79C"/>
			<stop  offset="0.4399" style="stop-color:#D5ABA0"/>
			<stop  offset="0.4474" style="stop-color:#D7AFA3"/>
			<stop  offset="0.5047" style="stop-color:#EAC6BD"/>
			<stop  offset="0.5553" style="stop-color:#F6D5CD"/>
			<stop  offset="0.5938" style="stop-color:#FDDBD4"/>
			<stop  offset="0.6143" style="stop-color:#EBC7BF"/>
			<stop  offset="0.6781" style="stop-color:#C99A90"/>
			<stop  offset="0.7351" style="stop-color:#B57F74"/>
			<stop  offset="0.7827" style="stop-color:#A97165"/>
			<stop  offset="0.8149" style="stop-color:#A56B60"/>
			<stop  offset="0.884" style="stop-color:#AE6D60"/>
			<stop  offset="0.9935" style="stop-color:#C77062"/>
			<stop  offset="1" style="stop-color:#C97062"/>
		</linearGradient>
		<path class="st5" d="M316.12,158.05v6.17h-6.02v-6.17h-3.2v16.04h3.2v-7h6.02v7h3.18v-16.04H316.12z"/>
		<linearGradient id="SVGID_6_" gradientUnits="userSpaceOnUse" x1="241.3601" y1="-83.3602" x2="354.1121" y2="157.8434">
			<stop  offset="0" style="stop-color:#AF7C6B"/>
			<stop  offset="0.0343" style="stop-color:#C28E82"/>
			<stop  offset="0.0698" style="stop-color:#D4A09A"/>
			<stop  offset="0.0905" style="stop-color:#DCA8A4"/>
			<stop  offset="0.1163" style="stop-color:#C8928B"/>
			<stop  offset="0.1497" style="stop-color:#B88076"/>
			<stop  offset="0.1851" style="stop-color:#AD7469"/>
			<stop  offset="0.2234" style="stop-color:#A76E62"/>
			<stop  offset="0.27" style="stop-color:#A56B60"/>
			<stop  offset="0.3069" style="stop-color:#AA7266"/>
			<stop  offset="0.3642" style="stop-color:#B78478"/>
			<stop  offset="0.4344" style="stop-color:#D2A79C"/>
			<stop  offset="0.4399" style="stop-color:#D5ABA0"/>
			<stop  offset="0.4474" style="stop-color:#D7AFA3"/>
			<stop  offset="0.5047" style="stop-color:#EAC6BD"/>
			<stop  offset="0.5553" style="stop-color:#F6D5CD"/>
			<stop  offset="0.5938" style="stop-color:#FDDBD4"/>
			<stop  offset="0.6143" style="stop-color:#EBC7BF"/>
			<stop  offset="0.6781" style="stop-color:#C99A90"/>
			<stop  offset="0.7351" style="stop-color:#B57F74"/>
			<stop  offset="0.7827" style="stop-color:#A97165"/>
			<stop  offset="0.8149" style="stop-color:#A56B60"/>
			<stop  offset="0.884" style="stop-color:#AE6D60"/>
			<stop  offset="0.9935" style="stop-color:#C77062"/>
			<stop  offset="1" style="stop-color:#C97062"/>
		</linearGradient>
		<path class="st6" d="M356.26,171.21v-4.2h4.88v-2.73h-4.88v-3.37h6.59v-2.86h-9.77v16.04h10.03v-2.88H356.26z"/>
		<linearGradient id="SVGID_7_" gradientUnits="userSpaceOnUse" x1="278.5168" y1="-100.7695" x2="391.2789" y2="140.4556">
			<stop  offset="0" style="stop-color:#AF7C6B"/>
			<stop  offset="0.0343" style="stop-color:#C28E82"/>
			<stop  offset="0.0698" style="stop-color:#D4A09A"/>
			<stop  offset="0.0905" style="stop-color:#DCA8A4"/>
			<stop  offset="0.1163" style="stop-color:#C8928B"/>
			<stop  offset="0.1497" style="stop-color:#B88076"/>
			<stop  offset="0.1851" style="stop-color:#AD7469"/>
			<stop  offset="0.2234" style="stop-color:#A76E62"/>
			<stop  offset="0.27" style="stop-color:#A56B60"/>
			<stop  offset="0.3069" style="stop-color:#AA7266"/>
			<stop  offset="0.3642" style="stop-color:#B78478"/>
			<stop  offset="0.4344" style="stop-color:#D2A79C"/>
			<stop  offset="0.4399" style="stop-color:#D5ABA0"/>
			<stop  offset="0.4474" style="stop-color:#D7AFA3"/>
			<stop  offset="0.5047" style="stop-color:#EAC6BD"/>
			<stop  offset="0.5553" style="stop-color:#F6D5CD"/>
			<stop  offset="0.5938" style="stop-color:#FDDBD4"/>
			<stop  offset="0.6143" style="stop-color:#EBC7BF"/>
			<stop  offset="0.6781" style="stop-color:#C99A90"/>
			<stop  offset="0.7351" style="stop-color:#B57F74"/>
			<stop  offset="0.7827" style="stop-color:#A97165"/>
			<stop  offset="0.8149" style="stop-color:#A56B60"/>
			<stop  offset="0.884" style="stop-color:#AE6D60"/>
			<stop  offset="0.9935" style="stop-color:#C77062"/>
			<stop  offset="1" style="stop-color:#C97062"/>
		</linearGradient>
		<path class="st7" d="M394.91,158.05v2.86h4.5v13.18h3.18v-13.18h4.52v-2.86H394.91z"/>
		<linearGradient id="SVGID_8_" gradientUnits="userSpaceOnUse" x1="309.658" y1="-115.3007" x2="422.4094" y2="125.9018">
			<stop  offset="0" style="stop-color:#AF7C6B"/>
			<stop  offset="0.0343" style="stop-color:#C28E82"/>
			<stop  offset="0.0698" style="stop-color:#D4A09A"/>
			<stop  offset="0.0905" style="stop-color:#DCA8A4"/>
			<stop  offset="0.1163" style="stop-color:#C8928B"/>
			<stop  offset="0.1497" style="stop-color:#B88076"/>
			<stop  offset="0.1851" style="stop-color:#AD7469"/>
			<stop  offset="0.2234" style="stop-color:#A76E62"/>
			<stop  offset="0.27" style="stop-color:#A56B60"/>
			<stop  offset="0.3069" style="stop-color:#AA7266"/>
			<stop  offset="0.3642" style="stop-color:#B78478"/>
			<stop  offset="0.4344" style="stop-color:#D2A79C"/>
			<stop  offset="0.4399" style="stop-color:#D5ABA0"/>
			<stop  offset="0.4474" style="stop-color:#D7AFA3"/>
			<stop  offset="0.5047" style="stop-color:#EAC6BD"/>
			<stop  offset="0.5553" style="stop-color:#F6D5CD"/>
			<stop  offset="0.5938" style="stop-color:#FDDBD4"/>
			<stop  offset="0.6143" style="stop-color:#EBC7BF"/>
			<stop  offset="0.6781" style="stop-color:#C99A90"/>
			<stop  offset="0.7351" style="stop-color:#B57F74"/>
			<stop  offset="0.7827" style="stop-color:#A97165"/>
			<stop  offset="0.8149" style="stop-color:#A56B60"/>
			<stop  offset="0.884" style="stop-color:#AE6D60"/>
			<stop  offset="0.9935" style="stop-color:#C77062"/>
			<stop  offset="1" style="stop-color:#C97062"/>
		</linearGradient>
		<path class="st8" d="M439.6,158.05v16.04h3.18v-16.04H439.6z"/>
		<linearGradient id="SVGID_9_" gradientUnits="userSpaceOnUse" x1="343.9711" y1="-131.3736" x2="456.7282" y2="109.8411">
			<stop  offset="0" style="stop-color:#AF7C6B"/>
			<stop  offset="0.0343" style="stop-color:#C28E82"/>
			<stop  offset="0.0698" style="stop-color:#D4A09A"/>
			<stop  offset="0.0905" style="stop-color:#DCA8A4"/>
			<stop  offset="0.1163" style="stop-color:#C8928B"/>
			<stop  offset="0.1497" style="stop-color:#B88076"/>
			<stop  offset="0.1851" style="stop-color:#AD7469"/>
			<stop  offset="0.2234" style="stop-color:#A76E62"/>
			<stop  offset="0.27" style="stop-color:#A56B60"/>
			<stop  offset="0.3069" style="stop-color:#AA7266"/>
			<stop  offset="0.3642" style="stop-color:#B78478"/>
			<stop  offset="0.4344" style="stop-color:#D2A79C"/>
			<stop  offset="0.4399" style="stop-color:#D5ABA0"/>
			<stop  offset="0.4474" style="stop-color:#D7AFA3"/>
			<stop  offset="0.5047" style="stop-color:#EAC6BD"/>
			<stop  offset="0.5553" style="stop-color:#F6D5CD"/>
			<stop  offset="0.5938" style="stop-color:#FDDBD4"/>
			<stop  offset="0.6143" style="stop-color:#EBC7BF"/>
			<stop  offset="0.6781" style="stop-color:#C99A90"/>
			<stop  offset="0.7351" style="stop-color:#B57F74"/>
			<stop  offset="0.7827" style="stop-color:#A97165"/>
			<stop  offset="0.8149" style="stop-color:#A56B60"/>
			<stop  offset="0.884" style="stop-color:#AE6D60"/>
			<stop  offset="0.9935" style="stop-color:#C77062"/>
			<stop  offset="1" style="stop-color:#C97062"/>
		</linearGradient>
		<path class="st9" d="M483.14,171.44c-2.5,0-4.1-2-4.1-5.37c0-3.33,1.6-5.37,4.1-5.37c1.64,0,2.84,0.85,3.69,2.56l2.54-1.37
			c-1.15-2.69-3.31-4.14-6.23-4.14c-4.29,0-7.36,3.35-7.36,8.32c0,4.95,3.07,8.3,7.36,8.3c2.92,0,5.14-1.49,6.23-4.12l-2.54-1.39
			C485.98,170.59,484.78,171.44,483.14,171.44z"/>
		<linearGradient id="SVGID_10_" gradientUnits="userSpaceOnUse" x1="379.9129" y1="-148.2583" x2="492.693" y2="93.0053">
			<stop  offset="0" style="stop-color:#AF7C6B"/>
			<stop  offset="0.0343" style="stop-color:#C28E82"/>
			<stop  offset="0.0698" style="stop-color:#D4A09A"/>
			<stop  offset="0.0905" style="stop-color:#DCA8A4"/>
			<stop  offset="0.1163" style="stop-color:#C8928B"/>
			<stop  offset="0.1497" style="stop-color:#B88076"/>
			<stop  offset="0.1851" style="stop-color:#AD7469"/>
			<stop  offset="0.2234" style="stop-color:#A76E62"/>
			<stop  offset="0.27" style="stop-color:#A56B60"/>
			<stop  offset="0.3069" style="stop-color:#AA7266"/>
			<stop  offset="0.3642" style="stop-color:#B78478"/>
			<stop  offset="0.4344" style="stop-color:#D2A79C"/>
			<stop  offset="0.4399" style="stop-color:#D5ABA0"/>
			<stop  offset="0.4474" style="stop-color:#D7AFA3"/>
			<stop  offset="0.5047" style="stop-color:#EAC6BD"/>
			<stop  offset="0.5553" style="stop-color:#F6D5CD"/>
			<stop  offset="0.5938" style="stop-color:#FDDBD4"/>
			<stop  offset="0.6143" style="stop-color:#EBC7BF"/>
			<stop  offset="0.6781" style="stop-color:#C99A90"/>
			<stop  offset="0.7351" style="stop-color:#B57F74"/>
			<stop  offset="0.7827" style="stop-color:#A97165"/>
			<stop  offset="0.8149" style="stop-color:#A56B60"/>
			<stop  offset="0.884" style="stop-color:#AE6D60"/>
			<stop  offset="0.9935" style="stop-color:#C77062"/>
			<stop  offset="1" style="stop-color:#C97062"/>
		</linearGradient>
		<path class="st10" d="M528.7,164.98l-1.6-0.9c-1.28-0.77-1.75-1.22-1.75-2c0-0.94,0.75-1.45,1.83-1.45c1.17,0,1.98,0.58,2.65,1.86
			l2.33-1.43c-0.9-2.11-2.6-3.31-5.05-3.31c-2.86,0-4.97,1.75-4.97,4.39c0,1.96,1.15,3.26,3.54,4.69l1.54,0.87
			c1.45,0.88,1.88,1.26,1.88,2.15c0,1.05-0.77,1.68-2.05,1.68c-1.54,0-2.58-0.85-3.35-2.32l-2.37,1.47
			c1.05,2.35,3.07,3.71,5.76,3.71c3.07,0,5.25-1.79,5.25-4.61C532.35,167.75,531.26,166.45,528.7,164.98z"/>
	</g>
	<g>
		<polygon points="284.31,136.74 260.37,38.2 254.97,38.2 281.16,145.43 287.61,145.43 313.34,38.2 308.25,38.2 		"/>
		<path d="M345.71,37.46c-14.76,0-23.21,10.05-23.21,27.58v53.58c0,17.53,8.45,27.56,23.21,27.56c14.95,0,23.51-10.03,23.51-27.56
			V65.04C369.23,47.51,360.66,37.46,345.71,37.46z M364.03,118.77c0,10.28-3.18,22.53-18.32,22.53c-14.89,0-18.04-12.26-18.04-22.53
			V64.89c0-10.28,3.14-22.53,18.04-22.53c15.14,0,18.32,12.26,18.32,22.53V118.77z"/>
		<path d="M401.99,37.45c-14.56,0-22.91,10.05-22.91,27.58v53.58c0,17.53,8.35,27.58,22.91,27.58c14.66,0,23.06-10.05,23.06-27.58
			V90.88h-21.6v4.89h16.4v22.99c0,10.21-3.07,22.38-17.72,22.38c-14.77,0-17.87-12.17-17.87-22.38V64.88
			c0-10.28,3.1-22.54,17.87-22.54c14.65,0,17.72,12.26,17.72,22.54v8.01h5.19v-7.86C425.05,47.5,416.65,37.45,401.99,37.45z"/>
		<path d="M475.24,118.61c0,10.35-3.05,22.69-17.57,22.69c-14.52,0-17.57-12.34-17.57-22.69V38.2h-5.19v80.25
			c0,17.62,8.3,27.73,22.76,27.73c14.37,0,22.61-10.11,22.61-27.73V38.2h-5.04V118.61z"/>
		<polygon points="532.35,43.25 532.35,38.2 490.29,38.2 490.29,145.43 532.35,145.43 532.35,140.39 495.48,140.39 495.48,93.51 
			526.48,93.51 526.48,88.62 495.48,88.62 495.48,43.25 		"/>
	</g>
	<linearGradient id="SVGID_11_" gradientUnits="userSpaceOnUse" x1="46.1501" y1="7.9798" x2="158.8666" y2="249.1076">
		<stop  offset="0" style="stop-color:#AF7C6B"/>
		<stop  offset="0.0343" style="stop-color:#C28E82"/>
		<stop  offset="0.0698" style="stop-color:#D4A09A"/>
		<stop  offset="0.0905" style="stop-color:#DCA8A4"/>
		<stop  offset="0.1163" style="stop-color:#C8928B"/>
		<stop  offset="0.1497" style="stop-color:#B88076"/>
		<stop  offset="0.1851" style="stop-color:#AD7469"/>
		<stop  offset="0.2234" style="stop-color:#A76E62"/>
		<stop  offset="0.27" style="stop-color:#A56B60"/>
		<stop  offset="0.3069" style="stop-color:#AA7266"/>
		<stop  offset="0.3642" style="stop-color:#B78478"/>
		<stop  offset="0.4344" style="stop-color:#D2A79C"/>
		<stop  offset="0.4399" style="stop-color:#D5ABA0"/>
		<stop  offset="0.4474" style="stop-color:#D7AFA3"/>
		<stop  offset="0.5047" style="stop-color:#EAC6BD"/>
		<stop  offset="0.5553" style="stop-color:#F6D5CD"/>
		<stop  offset="0.5938" style="stop-color:#FDDBD4"/>
		<stop  offset="0.6143" style="stop-color:#EBC7BF"/>
		<stop  offset="0.6781" style="stop-color:#C99A90"/>
		<stop  offset="0.7351" style="stop-color:#B57F74"/>
		<stop  offset="0.7827" style="stop-color:#A97165"/>
		<stop  offset="0.8149" style="stop-color:#A56B60"/>
		<stop  offset="0.884" style="stop-color:#AE6D60"/>
		<stop  offset="0.9935" style="stop-color:#C77062"/>
		<stop  offset="1" style="stop-color:#C97062"/>
	</linearGradient>
	<path class="st11" d="M162.75,23.96c-0.57-2.41-1.72-5.06-3.46-7.97c-1.73-2.91-4.3-5.85-7.7-8.82
		c-6.99-5.65-14.61-7.96-22.85-6.93C122,1.1,115.77,3.7,110.05,8.05c-5.71,4.4-10.17,10.1-13.36,17.11
		c-4.94,10.5-4.94,22.65,0.01,36.46c4.21,10.17,7.86,20.82,10.95,31.95c3.09,11.13,4.59,22.05,4.5,32.74
		c-0.1,10.4-2.77,19.91-7.99,28.54c-5.22,8.62-13.99,15.67-26.28,21.14c-15.62,6.09-29.79,6.38-42.52,0.87
		c-8.45-3.58-15.36-8.88-20.73-15.88c-5.43-6.99-8.62-14.92-9.59-23.79c-1.48-12.36,2.76-24.86,12.7-37.49
		c8.55-9.57,18.21-14.62,28.97-15.15c6.88-0.39,13.29,0.73,19.22,3.35c5.88,2.63,10.58,6.48,14.08,11.54
		c0.5,0.72,0.96,1.45,1.38,2.21l4.79-1.04c-0.66-1.31-1.38-2.6-2.24-3.82c-4.01-5.8-9.38-10.2-16.09-13.2
		c-6.66-2.97-13.82-4.22-21.49-3.76c-12,0.6-22.76,6.21-32.29,16.85c-10.8,13.77-15.38,27.44-13.74,41.02
		c1.07,9.79,4.57,18.54,10.49,26.22c5.92,7.64,13.51,13.41,22.77,17.32c13.84,6.02,29.21,5.72,46.12-0.9
		c13.36-5.9,22.86-13.54,28.5-22.9c5.64-9.37,8.51-19.7,8.62-31c0.1-11.1-1.43-22.37-4.58-33.82c-3.16-11.45-6.87-22.37-11.13-32.78
		c-4.5-12.46-4.54-23.38-0.11-32.76c2.85-6.28,6.81-11.35,11.89-15.21c5.07-3.9,10.51-6.21,16.32-6.92
		c6.98-0.86,13.42,1.08,19.31,5.82c2.91,2.58,5.11,5.07,6.58,7.48c1.47,2.41,2.48,4.61,3.01,6.6c0.53,1.99,0.79,3.58,0.77,4.76
		c-0.02,1.18-0.05,1.78-0.1,1.79c-0.06,0.66,0.11,1.24,0.49,1.74c0.38,0.49,0.91,0.79,1.59,0.9c0.66,0.06,1.24-0.11,1.74-0.49
		c0.49-0.38,0.8-0.89,0.91-1.51c0.04-0.06,0.06-0.81,0.07-2.27C163.6,28.3,163.32,26.37,162.75,23.96z"/>
	<linearGradient id="SVGID_12_" gradientUnits="userSpaceOnUse" x1="98.0903" y1="-16.301" x2="210.8052" y2="224.8233">
		<stop  offset="0" style="stop-color:#AF7C6B"/>
		<stop  offset="0.0343" style="stop-color:#C28E82"/>
		<stop  offset="0.0698" style="stop-color:#D4A09A"/>
		<stop  offset="0.0905" style="stop-color:#DCA8A4"/>
		<stop  offset="0.1163" style="stop-color:#C8928B"/>
		<stop  offset="0.1497" style="stop-color:#B88076"/>
		<stop  offset="0.1851" style="stop-color:#AD7469"/>
		<stop  offset="0.2234" style="stop-color:#A76E62"/>
		<stop  offset="0.27" style="stop-color:#A56B60"/>
		<stop  offset="0.3069" style="stop-color:#AA7266"/>
		<stop  offset="0.3642" style="stop-color:#B78478"/>
		<stop  offset="0.4344" style="stop-color:#D2A79C"/>
		<stop  offset="0.4399" style="stop-color:#D5ABA0"/>
		<stop  offset="0.4474" style="stop-color:#D7AFA3"/>
		<stop  offset="0.5047" style="stop-color:#EAC6BD"/>
		<stop  offset="0.5553" style="stop-color:#F6D5CD"/>
		<stop  offset="0.5938" style="stop-color:#FDDBD4"/>
		<stop  offset="0.6143" style="stop-color:#EBC7BF"/>
		<stop  offset="0.6781" style="stop-color:#C99A90"/>
		<stop  offset="0.7351" style="stop-color:#B57F74"/>
		<stop  offset="0.7827" style="stop-color:#A97165"/>
		<stop  offset="0.8149" style="stop-color:#A56B60"/>
		<stop  offset="0.884" style="stop-color:#AE6D60"/>
		<stop  offset="0.9935" style="stop-color:#C77062"/>
		<stop  offset="1" style="stop-color:#C97062"/>
	</linearGradient>
	<path class="st12" d="M194.32,112.95c-0.43-0.49-0.98-0.73-1.62-0.77c-0.62-0.02-1.19,0.19-1.68,0.62
		c-0.11,0.11-0.94,0.85-2.47,2.2l-0.02,0.02c-0.53,0.45-1.11,0.98-1.79,1.56c-2.69,2.39-6.02,5.08-10,8.13
		c-3.95,3.03-7.93,5.63-11.86,7.78c-3.93,2.17-7.19,3.09-9.73,2.81c-2.5-0.64-4.07-2.54-4.71-5.7c-0.64-3.16-0.83-6.44-0.55-9.85
		c0.26-3.41,0.55-5.78,0.85-7.15c9.11-9.22,16.43-14.95,21.97-17.21c0.64-0.19,1.09-0.56,1.39-1.13c0.3-0.56,0.36-1.17,0.23-1.81
		c-0.21-0.64-0.58-1.09-1.15-1.39c-0.56-0.3-1.17-0.34-1.81-0.15c-6.31,2.5-14.36,8.7-24.17,18.6c-0.24,0.19-0.43,0.41-0.58,0.66
		c-3.24,3.18-6.36,6.38-9.41,9.62l46.01-71.86c0.34-0.55,0.43-1.11,0.3-1.73c-0.15-0.6-0.51-1.11-1.04-1.51
		c-0.58-0.34-1.19-0.45-1.81-0.34c-0.6,0.13-1.11,0.49-1.51,1.07l-62.01,96.91c-0.34,0.6-0.45,1.2-0.3,1.81
		c0.15,0.62,0.49,1.09,1.04,1.43c0.55,0.34,1.09,0.47,1.66,0.38c0.56-0.09,1.04-0.38,1.43-0.81c0.4-0.49,2.92-3.43,7.61-8.83
		c4.67-5.38,10.28-11.48,16.79-18.3c-0.45,4.37-0.13,8.85,0.92,13.42c1.04,4.57,3.73,7.4,8.04,8.49c3.13,0.4,6.91-0.55,11.31-2.81
		c4.41-2.24,8.77-4.97,13.12-8.19c4.33-3.2,7.96-6.08,10.86-8.6c0.36-0.32,0.72-0.6,1.04-0.88c0.02,0,0.02-0.02,0.04-0.04
		c0.43-0.38,0.83-0.72,1.19-1.02c1.47-1.28,2.24-1.94,2.33-2.05c0.45-0.49,0.68-1.05,0.7-1.66
		C194.98,114.06,194.77,113.49,194.32,112.95z"/>
	<linearGradient id="SVGID_13_" gradientUnits="userSpaceOnUse" x1="135.8062" y1="-33.8919" x2="248.4992" y2="207.1856">
		<stop  offset="0" style="stop-color:#AF7C6B"/>
		<stop  offset="0.0343" style="stop-color:#C28E82"/>
		<stop  offset="0.0698" style="stop-color:#D4A09A"/>
		<stop  offset="0.0905" style="stop-color:#DCA8A4"/>
		<stop  offset="0.1163" style="stop-color:#C8928B"/>
		<stop  offset="0.1497" style="stop-color:#B88076"/>
		<stop  offset="0.1851" style="stop-color:#AD7469"/>
		<stop  offset="0.2234" style="stop-color:#A76E62"/>
		<stop  offset="0.27" style="stop-color:#A56B60"/>
		<stop  offset="0.3069" style="stop-color:#AA7266"/>
		<stop  offset="0.3642" style="stop-color:#B78478"/>
		<stop  offset="0.4344" style="stop-color:#D2A79C"/>
		<stop  offset="0.4399" style="stop-color:#D5ABA0"/>
		<stop  offset="0.4474" style="stop-color:#D7AFA3"/>
		<stop  offset="0.5047" style="stop-color:#EAC6BD"/>
		<stop  offset="0.5553" style="stop-color:#F6D5CD"/>
		<stop  offset="0.5938" style="stop-color:#FDDBD4"/>
		<stop  offset="0.6143" style="stop-color:#EBC7BF"/>
		<stop  offset="0.6781" style="stop-color:#C99A90"/>
		<stop  offset="0.7351" style="stop-color:#B57F74"/>
		<stop  offset="0.7827" style="stop-color:#A97165"/>
		<stop  offset="0.8149" style="stop-color:#A56B60"/>
		<stop  offset="0.884" style="stop-color:#AE6D60"/>
		<stop  offset="0.9935" style="stop-color:#C77062"/>
		<stop  offset="1" style="stop-color:#C97062"/>
	</linearGradient>
	<path class="st13" d="M217.02,81.94c-0.53-0.4-1.11-0.55-1.75-0.43c-0.64,0.09-1.15,0.41-1.54,0.94l-4.2,5.59
		c-0.4,0.58-0.53,1.19-0.43,1.81c0.09,0.6,0.41,1.11,0.96,1.51c0.53,0.38,1.11,0.53,1.71,0.43c0.62-0.09,1.15-0.4,1.58-0.88
		l4.12-5.65c0.4-0.55,0.55-1.13,0.47-1.77C217.87,82.85,217.57,82.34,217.02,81.94z M226.11,113.7c-0.02-0.06-0.04-0.13-0.08-0.19
		c-0.11-0.36-0.34-0.66-0.64-0.92c-0.53-0.4-1.11-0.56-1.71-0.53c-0.62,0.06-1.15,0.32-1.58,0.81c-0.15,0.21-1.36,1.6-3.65,4.2
		c-0.02,0.04-0.06,0.08-0.09,0.11c-2.35,2.65-5.21,5.65-8.6,8.92c-3.39,3.28-6.63,5.93-9.73,7.96c-3.11,2.03-5.5,2.52-7.17,1.43
		c-1.37-1.36-1.54-3.69-0.51-6.97c1.04-3.29,2.6-6.81,4.74-10.58c2.13-3.78,4.16-7.12,6.1-10c1.92-2.9,3.13-4.63,3.56-5.21
		c0.34-0.49,0.51-1.04,0.47-1.62c-0.02-0.58-0.24-1.11-0.7-1.54c-0.49-0.45-1.05-0.66-1.69-0.66c-0.62,0-1.19,0.24-1.68,0.73
		L188.56,115l-0.02,0.02l-0.68,0.72c-0.45,0.51-0.66,1.05-0.62,1.66c0.02,0.62,0.28,1.17,0.77,1.66c0.49,0.45,1.04,0.66,1.64,0.66
		c0.38,0,0.72-0.09,1.04-0.26c0.02,0,0.02-0.02,0.04-0.04c0.21-0.09,0.4-0.24,0.58-0.43l0.6-0.58c-2.11,4.25-3.5,8.28-4.2,12.09
		c-0.68,3.8,0.06,6.7,2.2,8.72c2.54,1.75,5.78,1.66,9.7-0.3c3.28-1.64,6.57-3.82,9.86-6.61c0.66-0.53,1.32-1.09,1.98-1.69
		c3.97-3.58,7.29-6.85,10-9.85c2.69-2.99,4.1-4.61,4.25-4.86c0.4-0.49,0.56-1.05,0.51-1.68
		C226.19,114.04,226.17,113.87,226.11,113.7z"/>
	<linearGradient id="SVGID_14_" gradientUnits="userSpaceOnUse" x1="158.0276" y1="-44.318" x2="270.7419" y2="196.805">
		<stop  offset="0" style="stop-color:#AF7C6B"/>
		<stop  offset="0.0343" style="stop-color:#C28E82"/>
		<stop  offset="0.0698" style="stop-color:#D4A09A"/>
		<stop  offset="0.0905" style="stop-color:#DCA8A4"/>
		<stop  offset="0.1163" style="stop-color:#C8928B"/>
		<stop  offset="0.1497" style="stop-color:#B88076"/>
		<stop  offset="0.1851" style="stop-color:#AD7469"/>
		<stop  offset="0.2234" style="stop-color:#A76E62"/>
		<stop  offset="0.27" style="stop-color:#A56B60"/>
		<stop  offset="0.3069" style="stop-color:#AA7266"/>
		<stop  offset="0.3642" style="stop-color:#B78478"/>
		<stop  offset="0.4344" style="stop-color:#D2A79C"/>
		<stop  offset="0.4399" style="stop-color:#D5ABA0"/>
		<stop  offset="0.4474" style="stop-color:#D7AFA3"/>
		<stop  offset="0.5047" style="stop-color:#EAC6BD"/>
		<stop  offset="0.5553" style="stop-color:#F6D5CD"/>
		<stop  offset="0.5938" style="stop-color:#FDDBD4"/>
		<stop  offset="0.6143" style="stop-color:#EBC7BF"/>
		<stop  offset="0.6781" style="stop-color:#C99A90"/>
		<stop  offset="0.7351" style="stop-color:#B57F74"/>
		<stop  offset="0.7827" style="stop-color:#A97165"/>
		<stop  offset="0.8149" style="stop-color:#A56B60"/>
		<stop  offset="0.884" style="stop-color:#AE6D60"/>
		<stop  offset="0.9935" style="stop-color:#C77062"/>
		<stop  offset="1" style="stop-color:#C97062"/>
	</linearGradient>
	<path class="st14" d="M239.59,134.48h0.08c0.13-0.06,0.21-0.09,0.21-0.15L239.59,134.48z M267,112.95
		c-0.55-0.4-1.13-0.53-1.73-0.43c-0.62,0.09-1.11,0.41-1.51,0.94c-0.09,0.15-0.98,1.3-2.62,3.43c-1.64,2.13-3.71,4.57-6.23,7.34
		c-2.54,2.77-5.12,5.2-7.79,7.25c-2.67,2.05-5.12,3.05-7.32,3.01c0.06-0.06,0.08-0.09,0.08-0.15c0.21-1.37,0.9-3.24,2.13-5.59
		c1.24-2.35,2.64-4.88,4.2-7.57c2.01-3.52,3.77-6.87,5.29-10.05c1.52-3.2,2.18-5.82,1.98-7.87c-0.34-3.14-2.64-4.44-6.89-3.9
		c-2.99,0.55-6.33,2.2-10,4.99c-3.5,2.67-6.98,5.78-10.47,9.36c-0.15,0.17-0.32,0.34-0.49,0.51c0.13-0.24,0.28-0.47,0.41-0.7
		c2.33-3.95,4.05-6.8,5.18-8.57c0.34-0.6,0.43-1.19,0.28-1.81c-0.13-0.6-0.49-1.11-1.02-1.51c-0.58-0.34-1.19-0.43-1.81-0.3
		c-0.6,0.15-1.11,0.53-1.51,1.11c-0.92,1.47-2.43,3.95-4.48,7.45c-1.36,2.3-2.77,4.69-4.24,7.17c-0.75,1.28-1.54,2.62-2.33,3.95
		c-2.33,3.93-4.33,7.3-5.99,10.15c-0.23,0.4-0.45,0.77-0.66,1.11c-1.24,2.13-1.92,3.24-2,3.37c-0.3,0.6-0.38,1.19-0.23,1.81
		c0.15,0.6,0.53,1.09,1.11,1.43c0.55,0.3,1.09,0.38,1.66,0.26c0.56-0.13,1.04-0.43,1.43-0.92c0.09-0.15,1.41-1.84,3.93-5.06
		c2.52-3.24,5.69-7.02,9.51-11.35c3.82-4.35,7.74-8.25,11.77-11.69c4.01-3.46,7.57-5.48,10.66-6.06c0.98-0.15,1.47-0.21,1.47-0.15
		c0.09,1.32-0.55,3.35-1.92,6.06c-1.37,2.71-2.96,5.67-4.78,8.85c-3.71,6.04-6.02,11.03-6.89,15c-0.51,3.13,0.79,4.91,3.88,5.37
		h0.15c2.84,0.13,5.87-0.9,9.11-3.13c3.24-2.24,6.31-4.88,9.22-7.94c2.92-3.05,5.29-5.76,7.14-8.11c1.83-2.35,2.81-3.6,2.9-3.75
		c0.34-0.58,0.47-1.19,0.36-1.81C267.85,113.85,267.53,113.34,267,112.95z"/>
	<linearGradient id="SVGID_15_" gradientUnits="userSpaceOnUse" x1="-5.4369" y1="33.7066" x2="106.305" y2="272.7496">
		<stop  offset="0" style="stop-color:#AF7C6B"/>
		<stop  offset="0.0343" style="stop-color:#C28E82"/>
		<stop  offset="0.0698" style="stop-color:#D4A09A"/>
		<stop  offset="0.0905" style="stop-color:#DCA8A4"/>
		<stop  offset="0.1163" style="stop-color:#C8928B"/>
		<stop  offset="0.1497" style="stop-color:#B88076"/>
		<stop  offset="0.1851" style="stop-color:#AD7469"/>
		<stop  offset="0.2234" style="stop-color:#A76E62"/>
		<stop  offset="0.27" style="stop-color:#A56B60"/>
		<stop  offset="0.3069" style="stop-color:#AA7266"/>
		<stop  offset="0.3642" style="stop-color:#B78478"/>
		<stop  offset="0.4344" style="stop-color:#D2A79C"/>
		<stop  offset="0.4399" style="stop-color:#D5ABA0"/>
		<stop  offset="0.4474" style="stop-color:#D7AFA3"/>
		<stop  offset="0.5047" style="stop-color:#EAC6BD"/>
		<stop  offset="0.5553" style="stop-color:#F6D5CD"/>
		<stop  offset="0.5938" style="stop-color:#FDDBD4"/>
		<stop  offset="0.6143" style="stop-color:#EBC7BF"/>
		<stop  offset="0.6781" style="stop-color:#C99A90"/>
		<stop  offset="0.7351" style="stop-color:#B57F74"/>
		<stop  offset="0.7827" style="stop-color:#A97165"/>
		<stop  offset="0.8149" style="stop-color:#A56B60"/>
		<stop  offset="0.884" style="stop-color:#AE6D60"/>
		<stop  offset="0.9935" style="stop-color:#C77062"/>
		<stop  offset="1" style="stop-color:#C97062"/>
	</linearGradient>
	<path class="st15" d="M96.93,163.74c-0.96-0.21-1.94-0.47-2.82-0.87c-5.03-2.24-9.86-4.73-14.7-7.19
		c-3.78-1.92-7.29-4.22-11.22-5.85c-5.06-2.11-10.58,0.13-11.94,4.46c-0.11,0.38-0.19,0.77-0.28,1.15c-0.41-0.24-0.51-0.47-0.6-0.7
		c-1.32-3.07-3.61-5.29-8-5.63c-0.6-0.06-1.19-0.04-1.75,0c-1.04,0.09-2,0.34-2.92,0.68h-0.02c-1.02,0.38-1.98,0.85-2.9,1.36
		c-4.2,2.28-8.25,4.74-12.44,7.04c-3.45,1.9-6.95,3.75-10.99,4.89c-1.68,0.47-3.45,0.85-5.35,1.04l0.7,0.88h0.02
		c5.97,2.3,11.13,5.42,15.74,9.19c2.62,2.13,5.21,4.27,8.06,6.19c5.4,3.65,11.97,4.59,18.88,4.82c9.92,0.3,18.56-1.79,25.4-7.76
		c2.56-2.22,5.21-4.42,8.19-6.29c3.95-2.5,8.28-4.63,12.2-6.8C99.23,164.15,98.08,163.98,96.93,163.74z M79.1,164.68
		c-4.63,1.64-8.83,3.24-13.16,4.61c-7.15,2.24-14.33,1.75-21.33-0.47c-3.9-1.22-7.68-2.69-11.82-4.14H79.1z"/>
	<g>
		<path d="M91.89,125.34c-2.57-3.46-5.11-6.92-7.66-10.38c-0.54-0.76-1.09-1.51-1.67-2.25c-0.35-0.49-0.93-0.56-1.41-0.25
			c-0.35,0.23-0.61,0.88-0.25,1.35c0.33,0.46,0.63,0.93,0.97,1.41c-0.09,0.09-0.16,0.18-0.23,0.23c-0.72,0.53-1.44,1.02-2.14,1.55
			c-3.87,2.83-7.71,5.68-11.58,8.52c-1.51,1.12-3,2.25-4.53,3.37c-1.07,0.79-2.18,1.56-3.25,2.37c-0.98,0.76-1.19,2.09-0.53,3.11
			c0.37,0.54,0.76,1.05,1.14,1.58c0.16,0.23,0.33,0.46,0.53,0.74c-0.93,0.67-1.83,1.32-2.74,1.97c0.14,0.21,0.26,0.4,0.4,0.61
			c-0.09,0.07-0.14,0.12-0.21,0.16c-3.36,2.48-6.73,4.95-10.1,7.45h-0.02c-0.56,0.42-1.14,0.84-1.7,1.27
			c-0.11,0.07-2.04,1.28-2.32,1.53c0.18,0,1.14,0.54,1.18,0.54c0.02,0.02,0.05,0.07,0.07,0.09c1.86-1.37,3.69-2.71,5.52-4.06
			c2.72-2.02,5.46-4.02,8.24-6.08c0.21,0.25,0.35,0.44,0.58,0.7c0.9-0.69,1.77-1.37,2.71-2.09c0.53,0.74,0.98,1.44,1.53,2.09
			c0.26,0.33,0.63,0.65,1.02,0.84c0.84,0.39,1.67,0.21,2.42-0.33c5.13-3.8,10.26-7.57,15.41-11.35c1.76-1.3,3.51-2.6,5.29-3.9
			c0.28-0.21,0.58-0.42,0.95-0.69c0.32,0.47,0.62,0.91,0.93,1.34c0.25,0.33,0.61,0.44,1.02,0.33c0.4-0.09,0.65-0.37,0.74-0.76
			C92.3,125.97,92.12,125.65,91.89,125.34z M86.85,125.58c-1.56,1.16-3.11,2.32-4.67,3.48c-1.05,0.79-2.14,1.56-3.23,2.34
			c-0.11,0.07-11.6-1.62-13.81-1.97c5.89-4.34,11.74-8.66,17.57-12.97c1.93,2.62,3.87,5.24,5.83,7.91
			C88.01,124.76,87.41,125.16,86.85,125.58z"/>
		<path d="M89.66,121.22c-1.21-1.64-2.45-3.34-3.68-5.01c2.05-1.5,4.13-3.02,6.18-4.52c1.19,1.63,2.67,3.55,3.89,5.22
			C94.04,118.38,91.73,119.7,89.66,121.22z"/>
		<path d="M79.77,127.34c-0.05,0.33-0.32,0.45-0.55,0.3c-0.08-0.06-0.15-0.15-0.21-0.23c-0.7-0.95-1.41-1.91-2.11-2.86
			c-0.03-0.04-0.06-0.08-0.09-0.13c-0.13-0.19-0.14-0.38,0.06-0.52c0.19-0.14,0.38-0.09,0.52,0.09c0.77,1.04,1.53,2.08,2.29,3.12
			C79.73,127.19,79.75,127.3,79.77,127.34z"/>
		<path d="M76.73,129.7c-0.11,0.09-0.21,0.24-0.29,0.23c-0.15-0.01-0.34-0.08-0.42-0.19c-0.56-0.73-1.1-1.48-1.65-2.22
			c-0.2-0.28-0.41-0.55-0.61-0.83c-0.14-0.2-0.16-0.4,0.06-0.55c0.2-0.14,0.37-0.07,0.51,0.12c0.76,1.03,1.52,2.05,2.27,3.09
			C76.67,129.44,76.68,129.56,76.73,129.7z"/>
		<path d="M80.18,121.52c0.13,0.12,0.25,0.2,0.33,0.31c0.73,0.98,1.45,1.97,2.18,2.95c0.15,0.2,0.22,0.42,0,0.59
			c-0.23,0.18-0.41,0.06-0.57-0.15c-0.73-1-1.47-1.99-2.19-2.99c-0.09-0.13-0.1-0.34-0.08-0.5
			C79.87,121.66,80.05,121.6,80.18,121.52z"/>
	</g>
</g>
</svg>
